<?xml version="1.0" encoding="iso-8859-1"?>
<!-- Generator: Adobe Illustrator 19.0.0, SVG Export Plug-In . SVG Version: 6.00 Build 0)  -->
<svg version="1.1" id="Layer_1" xmlns="http://www.w3.org/2000/svg" xmlns:xlink="http://www.w3.org/1999/xlink" x="0px" y="0px"
	 viewBox="0 0 512 512" style="enable-background:new 0 0 512 512;" xml:space="preserve">
<path style="fill:#97BAA8;" d="M97.612,8.605H414.39c23.812,0,43.291,19.433,43.291,43.181v408.427
	c0,23.747-19.482,43.182-43.291,43.182H97.612c-23.811,0-43.293-19.431-43.293-43.182V51.786
	C54.319,28.036,73.801,8.605,97.612,8.605L97.612,8.605z"/>
<path style="fill:#78A097;" d="M54.319,405.452L442.091,18.674c9.512,7.938,15.59,19.851,15.59,33.112v408.427
	c0,23.747-19.482,43.182-43.291,43.182H97.612c-23.811,0-43.293-19.431-43.293-43.182V405.452z"/>
<path style="fill:#B1D7C5;" d="M334.506,430.632v9.835v9.836c0,11.945-9.709,21.629-21.685,21.629H199.179
	c-11.976,0-21.685-9.684-21.685-21.629v-9.836v-9.835c0-11.945,9.709-21.629,21.685-21.629h113.643
	C324.797,409.003,334.506,418.686,334.506,430.632z"/>
<path style="fill:#CAEEC5;" d="M218.443,211.515c3.862-17.139,19.21-29.943,37.562-29.943c18.346,0,33.695,12.804,37.553,29.943
	c6.002-3.856,13.15-6.096,20.82-6.096c21.254,0,38.491,17.191,38.491,38.395s-17.236,38.395-38.491,38.395
	c-5.947,0-11.573-1.346-16.6-3.745v74.343h-83.552v-74.343c-5.031,2.401-10.657,3.745-16.6,3.745
	c-21.261,0-38.494-17.191-38.494-38.395c0-21.205,17.233-38.395,38.494-38.395C205.298,205.42,212.441,207.66,218.443,211.515
	L218.443,211.515z"/>
<path style="fill:#B1D7C5;" d="M297.777,279.261v13.367v60.179h-83.552v-69.91v-3.637v-1.343h83.552V279.261z"/>
<path style="fill:#FF4328;" d="M139.87,8.605h76.988v76.791l-38.482-17.129L139.87,85.396V8.605L139.87,8.605z"/>
<path style="fill:#391B10;" d="M457.681,440.466v19.746c0,23.747-19.482,43.182-43.291,43.182H97.612
	c-23.811,0-43.293-19.431-43.293-43.182v-19.746H457.681z"/>
<path style="fill:#874D20;" d="M334.506,440.466v9.836c0,11.945-9.709,21.629-21.685,21.629H199.179
	c-11.976,0-21.685-9.684-21.685-21.629v-9.836H334.506z"/>
<path d="M414.39,0H216.858H139.87H97.612C68.996,0,45.714,23.231,45.714,51.786v388.681v19.746
	c0,28.555,23.282,51.786,51.898,51.786H414.39c25.039,0,45.992-17.787,50.84-41.363c0.693-3.368,1.056-6.854,1.056-10.424v-19.746
	V51.786C466.286,23.231,443.006,0,414.39,0z M208.253,17.21v54.937l-26.378-11.742c-2.228-0.992-4.77-0.991-6.997-0.001
	L148.474,72.15V17.21H208.253z M97.612,17.21h33.652v68.186c0,2.914,1.475,5.629,3.917,7.216c2.444,1.588,5.524,1.829,8.186,0.646
	l35.009-15.574l34.983,15.572c1.119,0.498,2.312,0.743,3.499,0.743c1.639,0,3.27-0.469,4.688-1.389
	c2.444-1.588,3.919-4.303,3.919-7.216V17.21h188.927c19.126,0,34.686,15.511,34.686,34.576v380.076H343.112v-1.231
	c0-16.67-13.587-30.233-30.29-30.233H199.179c-16.701,0-30.29,13.563-30.29,30.233v1.231H62.924V51.786
	C62.924,32.721,78.486,17.21,97.612,17.21z M325.901,430.632v19.67c0,7.182-5.866,13.024-13.08,13.024H199.179
	c-7.212,0-13.08-5.843-13.08-13.024v-19.67c0-7.181,5.868-13.023,13.08-13.023h113.643
	C320.033,417.608,325.901,423.451,325.901,430.632z M97.612,494.79c-19.127,0-34.688-15.512-34.688-34.577v-11.141h105.965v1.229
	c0,16.671,13.587,30.234,30.29,30.234h113.643c16.701,0,30.29-13.563,30.29-30.234v-1.229h105.965v11.141
	c0,19.066-15.56,34.577-34.686,34.577H97.612z M197.627,290.814c2.707,0,5.376-0.225,7.995-0.67v62.663
	c0,4.752,3.852,8.605,8.605,8.605h83.552c4.753,0,8.605-3.853,8.605-8.605v-62.663c2.619,0.446,5.288,0.67,7.996,0.67
	c25.969,0,47.096-21.085,47.096-46.999c0-25.916-21.128-47-47.096-47c-5.48,0-10.868,0.943-15.949,2.767
	c-7.736-15.887-24.204-26.615-42.424-26.615c-18.555,0-34.805,10.535-42.479,26.599c-5.068-1.814-10.438-2.751-15.901-2.751
	c-25.971,0-47.1,21.085-47.1,47C150.527,269.73,171.656,290.814,197.627,290.814z M197.627,214.026
	c5.759,0,11.349,1.636,16.167,4.73c2.362,1.518,5.317,1.788,7.914,0.723c2.599-1.065,4.513-3.332,5.131-6.072
	c3.032-13.46,15.3-23.23,29.168-23.23c13.865,0,26.127,9.769,29.158,23.229c0.617,2.74,2.531,5.006,5.131,6.072
	c2.598,1.067,5.552,0.796,7.916-0.722c4.818-3.095,10.409-4.73,16.17-4.73c16.479,0,29.886,13.364,29.886,29.79
	c0,16.425-13.407,29.789-29.886,29.789c-4.518,0-8.856-0.978-12.892-2.905c-2.667-1.274-5.8-1.09-8.298,0.486
	c-2.5,1.576-4.015,4.323-4.015,7.279v65.738h-66.342v-65.738c0-2.954-1.516-5.702-4.014-7.279c-2.499-1.576-5.632-1.76-8.297-0.487
	c-4.04,1.929-8.378,2.906-12.894,2.906c-16.481,0-29.89-13.364-29.89-29.789C167.737,227.388,181.146,214.026,197.627,214.026z
	 M265.79,440.467c0,4.778-3.883,8.651-8.674,8.651h-2.221c-4.791,0-8.674-3.873-8.674-8.651c0-4.778,3.883-8.652,8.674-8.652h2.221
	C261.907,431.815,265.79,435.688,265.79,440.467z"/>
<g>
</g>
<g>
</g>
<g>
</g>
<g>
</g>
<g>
</g>
<g>
</g>
<g>
</g>
<g>
</g>
<g>
</g>
<g>
</g>
<g>
</g>
<g>
</g>
<g>
</g>
<g>
</g>
<g>
</g>
</svg>
